<?xml version="1.0" standalone="no"?>
<!DOCTYPE svg PUBLIC "-//W3C//DTD SVG 20010904//EN"
 "http://www.w3.org/TR/2001/REC-SVG-20010904/DTD/svg10.dtd">
<svg version="1.0" xmlns="http://www.w3.org/2000/svg"
 width="618.000000pt" height="410.000000pt" viewBox="0 0 618.000000 410.000000"
 preserveAspectRatio="xMidYMid meet">

<g transform="translate(0.000000,410.000000) scale(0.100000,-0.100000)"
fill="#000000" stroke="none">
<path d="M3160 3678 c-14 -6 -51 -10 -83 -9 -48 1 -68 -4 -120 -31 -79 -42
-172 -129 -202 -187 -33 -67 -60 -160 -94 -328 -16 -81 -33 -157 -37 -167 -5
-14 -4 -17 4 -12 7 4 12 1 12 -9 0 -15 -23 -97 -38 -135 -3 -8 -4 -33 -3 -55
2 -31 -4 -49 -29 -83 -21 -30 -33 -60 -37 -95 -3 -29 -14 -63 -23 -77 -30 -44
-33 -56 -6 -25 30 35 32 30 10 -25 -9 -23 -14 -44 -10 -47 3 -4 6 1 6 10 0 10
4 17 9 17 5 0 11 -26 14 -57 4 -32 8 -69 9 -83 2 -20 -2 -26 -22 -28 -31 -4
-142 -42 -154 -54 -6 -4 1 -8 16 -8 16 0 34 -10 47 -25 19 -25 20 -25 23 -5 3
21 5 20 46 -10 24 -17 46 -38 49 -48 3 -9 13 -25 22 -36 9 -10 39 -66 68 -125
59 -120 70 -108 24 28 -15 46 -26 94 -23 106 4 21 7 22 45 13 37 -8 43 -7 71
21 18 17 47 34 66 37 47 9 94 46 110 86 8 18 19 36 24 40 6 4 11 11 11 16 0
22 50 112 62 112 14 0 13 34 -3 138 -7 47 -4 46 139 -47 29 -18 68 -39 87 -47
23 -10 46 -31 65 -62 24 -38 36 -47 60 -49 19 -1 22 0 10 4 -23 6 -35 21 -35
46 0 22 29 22 37 0 3 -10 11 -24 17 -32 13 -17 37 -131 30 -142 -3 -5 -1 -9 3
-9 5 0 17 -15 27 -34 12 -22 24 -32 34 -30 23 6 36 -5 53 -41 11 -23 24 -32
57 -39 42 -10 55 -29 27 -40 -8 -3 -15 -16 -15 -29 0 -14 -7 -30 -15 -37 -8
-7 -15 -21 -15 -31 0 -10 -4 -21 -10 -24 -16 -10 -12 -25 5 -19 8 4 15 15 15
25 0 11 10 23 25 29 13 5 31 23 40 41 17 32 57 79 107 126 14 14 32 38 38 54
14 32 50 41 50 12 0 -15 2 -15 9 -4 12 19 52 25 63 9 4 -7 8 -23 8 -35 0 -13
5 -23 10 -23 15 0 12 -31 -9 -91 -10 -30 -28 -110 -40 -177 -28 -164 -75 -322
-126 -432 -19 -43 -16 -20 15 94 11 43 19 80 17 82 -5 5 -47 -89 -47 -104 0
-5 -9 -17 -21 -28 l-21 -19 7 50 c4 28 13 63 21 79 16 34 18 58 5 72 -5 5 -11
20 -14 34 -4 22 -4 21 -6 -6 0 -17 -8 -37 -16 -44 -8 -7 -15 -27 -15 -44 0
-25 -2 -28 -11 -16 -8 11 -9 7 -5 -17 6 -34 -7 -46 -18 -17 -5 14 -10 12 -27
-10 -11 -14 -27 -26 -35 -26 -8 0 -14 -4 -14 -9 0 -11 -34 -23 -65 -25 -15 -1
-26 -18 -47 -71 -15 -38 -27 -73 -28 -76 0 -4 24 -6 53 -5 47 1 62 -5 147 -56
52 -31 98 -54 101 -52 3 2 9 40 13 84 4 45 13 98 20 118 8 20 32 84 54 142 23
59 52 164 67 235 45 222 87 332 137 364 22 13 26 -7 6 -28 -11 -10 -9 -12 6
-9 30 5 36 -39 35 -232 -2 -225 -2 -247 5 -293 l6 -37 -42 5 c-40 4 -41 4 -12
-5 17 -5 37 -16 43 -24 15 -17 16 -192 2 -254 -35 -153 -43 -194 -56 -257 -8
-38 -14 -87 -14 -108 -1 -44 -33 -97 -59 -97 -9 0 -46 7 -82 16 -78 20 -145
13 -187 -19 l-28 -22 35 -5 c29 -5 19 -8 -54 -19 -91 -14 -222 -9 -496 20
-177 18 -190 20 -190 29 0 4 21 20 48 35 26 15 71 43 101 63 47 30 255 130
374 179 21 8 35 18 33 21 -7 6 -74 -18 -186 -68 -47 -21 -121 -50 -165 -65
-96 -33 -144 -53 -250 -106 -44 -21 -88 -39 -97 -39 -9 0 -18 -5 -20 -11 -5
-15 -114 -39 -173 -38 -41 1 -44 3 -20 8 17 3 30 13 30 21 0 12 -15 15 -71 15
-45 0 -77 5 -87 13 -14 12 -25 9 -73 -17 -67 -36 -87 -38 -113 -12 -23 23 -56
125 -75 233 -9 46 -18 95 -22 110 -6 28 -4 31 75 96 9 7 -3 4 -26 -8 -23 -11
-52 -20 -64 -20 -20 0 -21 -3 -15 -52 20 -145 71 -309 113 -358 25 -30 25 -30
135 -30 100 0 110 -2 115 -19 3 -11 29 -32 59 -48 52 -27 54 -30 54 -68 0 -22
7 -53 15 -69 12 -23 13 -32 3 -45 -10 -12 -6 -11 17 3 20 14 54 21 108 24 66
4 80 2 91 -13 21 -29 31 0 31 91 0 58 4 84 15 95 11 10 46 14 135 15 91 1 107
-1 67 -6 -29 -5 -55 -10 -57 -12 -2 -2 -1 -33 3 -68 l7 -65 80 3 c44 2 96 7
115 11 31 6 35 10 32 35 -2 18 1 25 7 21 15 -9 14 -52 -1 -62 -7 -4 -60 -13
-118 -19 -126 -15 -129 -13 -137 74 l-6 61 -43 -1 -44 -2 0 -73 c0 -39 3 -74
8 -77 4 -2 61 -8 126 -12 108 -6 119 -5 113 10 -5 13 1 16 44 16 38 0 55 5 67
20 12 13 45 25 105 36 81 16 87 19 81 38 -3 12 -7 23 -8 26 -1 7 10 10 33 10
11 0 23 -9 26 -20 6 -18 15 -20 81 -20 82 0 77 3 154 -88 19 -23 41 -41 48
-42 21 0 25 29 7 57 -16 23 -16 25 -1 20 15 -6 15 -4 0 19 -9 13 -23 28 -32
33 -20 11 -5 33 17 26 13 -4 28 9 55 50 33 47 43 55 70 55 42 0 67 27 99 110
28 70 63 240 75 359 l7 74 43 15 c24 8 46 21 49 28 3 8 -2 42 -10 77 -9 34
-23 114 -31 177 -36 261 -85 493 -113 536 -23 35 -190 114 -267 126 -35 6 -67
134 -67 268 0 78 -2 90 -34 149 -28 53 -32 66 -22 82 6 10 16 19 21 19 15 0
-5 93 -34 150 -17 34 -32 85 -38 136 -14 100 -68 255 -121 343 -55 91 -152
187 -226 222 -64 31 -86 34 -125 17z m105 -159 c45 -22 85 -79 85 -118 0 -12
9 -47 20 -78 11 -32 20 -59 20 -60 0 -2 -19 -3 -42 -4 -58 0 -112 -20 -116
-41 -3 -15 2 -17 30 -11 60 13 92 10 96 -10 2 -11 -2 -17 -10 -16 -17 3 -83
-26 -92 -40 -4 -6 -3 -11 3 -11 5 0 12 6 15 13 5 10 7 10 12 0 3 -7 15 -13 27
-13 18 0 19 -2 7 -10 -13 -9 -13 -10 0 -10 13 0 13 -1 0 -10 -26 -17 27 -12
61 5 28 15 30 15 39 -11 6 -15 13 -52 16 -83 5 -50 3 -59 -20 -85 -14 -16 -26
-39 -26 -50 0 -12 -23 -61 -52 -109 -64 -109 -110 -142 -188 -135 -32 3 -61
14 -84 31 -19 15 -39 27 -45 27 -19 0 -81 62 -105 104 -37 65 -60 185 -52 269
5 62 10 75 33 94 32 26 70 34 128 26 37 -5 45 -3 45 10 0 11 -15 17 -55 22
-48 6 -62 4 -105 -18 l-48 -25 -7 73 c-7 66 -5 77 14 101 11 15 21 35 21 46 0
59 41 87 150 104 25 4 61 15 80 26 46 24 93 23 145 -3z m157 -686 c-11 -28
-36 -63 -45 -63 -4 0 2 18 13 40 20 39 47 58 32 23z m-789 -56 c3 -8 1 -20 -4
-28 -6 -10 -9 -7 -9 14 0 29 5 35 13 14z m1137 -2028 c0 -11 -4 -17 -10 -14
-5 3 -10 13 -10 21 0 8 5 14 10 14 6 0 10 -9 10 -21z m-458 -54 c3 -14 1 -25
-3 -25 -5 0 -9 11 -9 25 0 14 2 25 4 25 2 0 6 -11 8 -25z m-272 -41 c0 -8 -5
-12 -10 -9 -6 4 -8 11 -5 16 9 14 15 11 15 -7z"/>
<path d="M2926 3143 c-9 -10 -7 -41 3 -48 5 -3 16 2 25 10 8 9 17 11 21 5 4
-6 15 -6 32 1 15 5 34 7 42 4 14 -5 13 -3 -1 11 -17 17 -109 30 -122 17z"/>
<path d="M3188 2944 c-13 -7 -29 -9 -38 -4 -8 4 -26 3 -40 -2 -24 -10 -23 -11
20 -24 48 -15 112 -10 129 10 23 28 -28 43 -71 20z"/>
<path d="M3225 2849 c-22 -4 -75 -8 -118 -8 -55 -1 -76 -4 -71 -12 4 -8 40 -9
114 -4 106 6 108 6 103 -14 -4 -14 -16 -22 -42 -27 -55 -9 -60 -12 -19 -13 30
-1 46 6 75 34 20 19 41 35 45 35 4 0 8 5 8 10 0 12 -38 11 -95 -1z"/>
<path d="M3823 2022 c-17 -37 -42 -92 -56 -122 -13 -30 -38 -72 -56 -94 -34
-43 -38 -61 -16 -90 13 -17 15 -18 15 -3 0 9 5 17 11 17 12 0 56 92 75 158 7
26 24 80 38 121 14 41 25 76 23 77 -1 2 -17 -27 -34 -64z"/>
<path d="M3535 1862 c-15 -10 -37 -63 -30 -71 4 -3 18 7 31 22 32 38 32 73 -1
49z"/>
<path d="M2225 1616 c-49 -21 -59 -40 -48 -89 l9 -42 18 52 c10 29 29 62 43
73 29 23 21 25 -22 6z"/>
<path d="M2480 1610 c20 -13 33 -13 25 0 -3 6 -14 10 -23 10 -15 0 -15 -2 -2
-10z"/>
<path d="M2631 1504 c-11 -15 -28 -51 -38 -80 -18 -57 -28 -66 -38 -34 -3 11
-11 20 -17 20 -5 0 -7 -7 -4 -16 3 -9 6 -19 6 -24 0 -5 18 -30 40 -55 22 -25
40 -56 40 -68 0 -47 11 -51 147 -51 133 -1 323 20 323 35 0 5 -12 9 -26 9 -14
0 -23 4 -19 9 3 5 -1 25 -9 43 -8 18 -19 51 -25 73 -6 22 -17 49 -25 60 -15
20 -15 20 -16 -2 0 -26 -20 -42 -20 -16 -1 28 -22 50 -57 57 -26 6 -32 4 -38
-13 -8 -27 -19 -26 -33 3 -18 39 -95 42 -106 3 l-7 -22 -9 23 c-10 24 -35 30
-43 10 -3 -7 -3 4 0 25 7 44 2 46 -26 11z"/>
<path d="M2148 1463 c-22 -6 -23 -39 -2 -47 22 -9 34 1 34 30 0 24 -2 25 -32
17z"/>
<path d="M3417 1398 c-35 -79 -41 -108 -22 -108 9 0 22 15 30 33 15 37 30 127
21 127 -3 0 -17 -24 -29 -52z"/>
<path d="M2255 1390 c3 -5 12 -7 20 -3 21 7 19 13 -6 13 -11 0 -18 -4 -14 -10z"/>
<path d="M3344 1379 c-13 -15 -54 -95 -54 -104 0 -3 7 -5 15 -5 15 0 57 85 53
109 -3 12 -5 12 -14 0z"/>
<path d="M2161 1344 c0 -11 3 -14 6 -6 3 7 2 16 -1 19 -3 4 -6 -2 -5 -13z"/>
<path d="M3040 1345 c0 -23 22 -85 30 -85 17 0 11 47 -10 71 -10 13 -19 20
-20 14z"/>
<path d="M2245 1304 c-22 -13 -50 -24 -61 -24 -13 0 -24 -8 -27 -20 -6 -24 -1
-24 38 0 17 11 47 29 68 40 20 11 37 23 37 25 0 9 -15 3 -55 -21z"/>
<path d="M2600 1220 c0 -5 5 -10 11 -10 5 0 7 5 4 10 -3 6 -8 10 -11 10 -2 0
-4 -4 -4 -10z"/>
<path d="M2290 1201 c-19 -10 -40 -17 -47 -14 -7 3 -13 0 -13 -6 0 -15 23 -14
70 5 27 11 58 15 90 12 41 -4 48 -3 39 8 -16 20 -98 17 -139 -5z"/>
<path d="M3613 773 c9 -2 23 -2 30 0 6 3 -1 5 -18 5 -16 0 -22 -2 -12 -5z"/>
<path d="M3576 626 c7 -19 38 -22 32 -3 -3 6 -12 13 -21 15 -12 2 -15 -1 -11
-12z"/>
<path d="M3850 520 c-13 -8 -12 -10 3 -10 9 0 17 5 17 10 0 12 -1 12 -20 0z"/>
<path d="M2726 464 c-4 -9 -4 -19 -1 -22 2 -3 7 3 11 12 4 9 4 19 1 22 -2 3
-7 -3 -11 -12z"/>
<path d="M2590 418 c0 -19 2 -20 10 -8 13 19 13 30 0 30 -5 0 -10 -10 -10 -22z"/>
</g>
</svg>
