<?xml version="1.0" standalone="no"?>
<!DOCTYPE svg PUBLIC "-//W3C//DTD SVG 20010904//EN"
 "http://www.w3.org/TR/2001/REC-SVG-20010904/DTD/svg10.dtd">
<svg version="1.0" xmlns="http://www.w3.org/2000/svg"
 width="621.000000pt" height="442.000000pt" viewBox="0 0 621.000000 442.000000"
 preserveAspectRatio="xMidYMid meet">

<g transform="translate(0.000000,442.000000) scale(0.100000,-0.100000)"
fill="#000000" stroke="none">
<path d="M3391 4224 c0 -11 3 -14 6 -6 3 7 2 16 -1 19 -3 4 -6 -2 -5 -13z"/>
<path d="M3382 4180 c0 -14 2 -19 5 -12 2 6 2 18 0 25 -3 6 -5 1 -5 -13z"/>
<path d="M3372 4130 c0 -14 2 -19 5 -12 2 6 2 18 0 25 -3 6 -5 1 -5 -13z"/>
<path d="M3362 4080 c0 -14 2 -19 5 -12 2 6 2 18 0 25 -3 6 -5 1 -5 -13z"/>
<path d="M3352 4030 c0 -14 2 -19 5 -12 2 6 2 18 0 25 -3 6 -5 1 -5 -13z"/>
<path d="M3342 3980 c0 -14 2 -19 5 -12 2 6 2 18 0 25 -3 6 -5 1 -5 -13z"/>
<path d="M3942 3945 c0 -16 2 -22 5 -12 2 9 2 23 0 30 -3 6 -5 -1 -5 -18z"/>
<path d="M3332 3930 c0 -14 2 -19 5 -12 2 6 2 18 0 25 -3 6 -5 1 -5 -13z"/>
<path d="M3932 3885 c0 -16 2 -22 5 -12 2 9 2 23 0 30 -3 6 -5 -1 -5 -18z"/>
<path d="M3322 3880 c0 -14 2 -19 5 -12 2 6 2 18 0 25 -3 6 -5 1 -5 -13z"/>
<path d="M3312 3830 c0 -14 2 -19 5 -12 2 6 2 18 0 25 -3 6 -5 1 -5 -13z"/>
<path d="M3922 3825 c0 -16 2 -22 5 -12 2 9 2 23 0 30 -3 6 -5 -1 -5 -18z"/>
<path d="M3912 3765 c0 -16 2 -22 5 -12 2 9 2 23 0 30 -3 6 -5 -1 -5 -18z"/>
<path d="M3902 3710 c0 -14 2 -19 5 -12 2 6 2 18 0 25 -3 6 -5 1 -5 -13z"/>
<path d="M3886 3644 c-4 -20 -5 -38 -3 -40 3 -3 8 11 11 32 4 20 5 38 3 40 -3
3 -8 -11 -11 -32z"/>
<path d="M3871 3574 c0 -11 3 -14 6 -6 3 7 2 16 -1 19 -3 4 -6 -2 -5 -13z"/>
<path d="M2869 3363 c-13 -16 -12 -17 4 -4 16 13 21 21 13 21 -2 0 -10 -8 -17
-17z"/>
<path d="M2810 3319 l-35 -30 38 26 c33 24 43 35 34 35 -1 0 -18 -14 -37 -31z"/>
<path d="M1610 3291 c0 -5 9 -7 20 -4 11 3 20 7 20 9 0 2 -9 4 -20 4 -11 0
-20 -4 -20 -9z"/>
<path d="M1675 3280 c11 -5 27 -9 35 -9 9 0 8 4 -5 9 -11 5 -27 9 -35 9 -9 0
-8 -4 5 -9z"/>
<path d="M2735 3271 c-16 -9 -32 -25 -33 -36 -4 -19 -4 -19 15 0 10 11 27 28
38 38 23 20 20 20 -20 -2z"/>
<path d="M3701 3264 c0 -11 3 -14 6 -6 3 7 2 16 -1 19 -3 4 -6 -2 -5 -13z"/>
<path d="M1620 3265 c0 -5 5 -17 10 -25 5 -8 10 -10 10 -5 0 6 -5 17 -10 25
-5 8 -10 11 -10 5z"/>
<path d="M1750 3255 c14 -8 30 -14 35 -14 6 0 -1 6 -15 14 -14 8 -29 14 -35
14 -5 0 1 -6 15 -14z"/>
<path d="M3740 3250 c-6 -11 -8 -20 -6 -20 3 0 10 9 16 20 6 11 8 20 6 20 -3
0 -10 -9 -16 -20z"/>
<path d="M1800 3238 c0 -2 9 -11 20 -21 11 -9 20 -13 20 -7 0 5 -9 14 -20 20
-11 6 -20 9 -20 8z"/>
<path d="M3686 3223 c-6 -14 -5 -15 5 -6 7 7 10 15 7 18 -3 3 -9 -2 -12 -12z"/>
<path d="M2549 3193 c-13 -16 -12 -17 4 -4 16 13 21 21 13 21 -2 0 -10 -8 -17
-17z"/>
<path d="M2690 3202 c0 -4 -28 -24 -63 -44 -34 -21 -76 -52 -93 -70 -43 -46
-156 -188 -150 -188 2 0 41 45 86 100 58 71 100 111 146 140 35 22 68 40 74
40 5 0 10 7 10 15 0 8 -2 15 -5 15 -3 0 -5 -4 -5 -8z"/>
<path d="M3639 3193 c-13 -16 -12 -17 4 -4 16 13 21 21 13 21 -2 0 -10 -8 -17
-17z"/>
<path d="M3684 3168 l-19 -23 23 19 c12 11 22 21 22 23 0 8 -8 2 -26 -19z"/>
<path d="M1666 3167 c3 -10 9 -15 12 -12 3 3 0 11 -7 18 -10 9 -11 8 -5 -6z"/>
<path d="M2504 3158 l-19 -23 23 19 c21 18 27 26 19 26 -2 0 -12 -10 -23 -22z"/>
<path d="M2681 3153 c0 -11 -31 -56 -69 -100 -37 -43 -77 -91 -88 -108 -22
-31 -84 -188 -84 -208 1 -7 17 31 37 83 38 102 52 124 151 237 47 54 62 79 59
96 -4 22 -4 22 -6 0z"/>
<path d="M2454 3118 l-19 -23 23 19 c21 18 27 26 19 26 -2 0 -12 -10 -23 -22z"/>
<path d="M3610 3085 c-24 -25 -42 -45 -39 -45 3 0 25 20 49 45 24 25 42 45 39
45 -3 0 -25 -20 -49 -45z"/>
<path d="M1700 3106 c0 -2 8 -10 18 -17 15 -13 16 -12 3 4 -13 16 -21 21 -21
13z"/>
<path d="M2404 3078 l-19 -23 23 19 c21 18 27 26 19 26 -2 0 -12 -10 -23 -22z"/>
<path d="M1805 3080 c-13 -5 -14 -9 -5 -9 8 0 24 4 35 9 13 5 14 9 5 9 -8 0
-24 -4 -35 -9z"/>
<path d="M2673 3050 c0 -25 2 -35 4 -22 2 12 2 32 0 45 -2 12 -4 2 -4 -23z"/>
<path d="M3232 3050 c0 -19 2 -27 5 -17 2 9 2 25 0 35 -3 9 -5 1 -5 -18z"/>
<path d="M1743 3063 c9 -2 23 -2 30 0 6 3 -1 5 -18 5 -16 0 -22 -2 -12 -5z"/>
<path d="M2337 3025 c-15 -14 -24 -25 -19 -25 5 0 19 11 32 25 30 32 23 32
-13 0z"/>
<path d="M3519 3003 l-24 -28 28 24 c25 23 32 31 24 31 -2 0 -14 -12 -28 -27z"/>
<path d="M3215 2995 c-16 -49 -16 -51 0 -31 15 19 20 46 10 46 -3 0 -8 -7 -10
-15z"/>
<path d="M2663 2925 c0 -33 2 -45 4 -27 2 18 2 45 0 60 -2 15 -4 0 -4 -33z"/>
<path d="M3429 2923 l-34 -38 38 34 c20 19 37 36 37 38 0 8 -8 0 -41 -34z"/>
<path d="M3170 2900 c-6 -11 -8 -20 -6 -20 3 0 10 9 16 20 6 11 8 20 6 20 -3
0 -10 -9 -16 -20z"/>
<path d="M2331 2839 c-45 -57 -49 -70 -24 -90 15 -13 15 -12 3 8 -15 23 -12
29 46 101 15 17 24 32 21 32 -3 0 -24 -23 -46 -51z"/>
<path d="M3369 2853 l-24 -28 28 24 c25 23 32 31 24 31 -2 0 -14 -12 -28 -27z"/>
<path d="M2841 2828 c-1 -27 4 -48 9 -48 12 0 12 34 0 70 -7 20 -8 16 -9 -22z"/>
<path d="M2958 2863 c6 -2 18 -2 25 0 6 3 1 5 -13 5 -14 0 -19 -2 -12 -5z"/>
<path d="M2880 2840 c-8 -5 -10 -10 -5 -10 6 0 17 5 25 10 8 5 11 10 5 10 -5
0 -17 -5 -25 -10z"/>
<path d="M3329 2803 c-13 -16 -12 -17 4 -4 9 7 17 15 17 17 0 8 -8 3 -21 -13z"/>
<path d="M3150 2797 c0 -2 15 -16 33 -33 l32 -29 -29 33 c-28 30 -36 37 -36
29z"/>
<path d="M3299 2763 c-13 -16 -12 -17 4 -4 16 13 21 21 13 21 -2 0 -10 -8 -17
-17z"/>
<path d="M2662 2648 c-1 -54 1 -98 6 -98 4 0 6 30 4 67 -5 119 -9 131 -10 31z"/>
<path d="M3269 2723 c-13 -16 -12 -17 4 -4 16 13 21 21 13 21 -2 0 -10 -8 -17
-17z"/>
<path d="M3216 2717 c3 -10 9 -15 12 -12 3 3 0 11 -7 18 -10 9 -11 8 -5 -6z"/>
<path d="M2426 2705 c-9 -26 -7 -32 5 -12 6 10 9 21 6 23 -2 3 -7 -2 -11 -11z"/>
<path d="M2998 2703 c7 -3 16 -2 19 1 4 3 -2 6 -13 5 -11 0 -14 -3 -6 -6z"/>
<path d="M2843 2650 c0 -30 2 -43 4 -27 2 15 2 39 0 55 -2 15 -4 2 -4 -28z"/>
<path d="M3030 2696 c0 -2 8 -10 18 -17 15 -13 16 -12 3 4 -13 16 -21 21 -21
13z"/>
<path d="M2387 2598 c-8 -24 -18 -52 -22 -63 -5 -13 -5 -17 2 -10 12 12 45
107 39 112 -2 2 -11 -15 -19 -39z"/>
<path d="M2831 2564 c0 -11 3 -14 6 -6 3 7 2 16 -1 19 -3 4 -6 -2 -5 -13z"/>
<path d="M3059 2573 c-1 -4 0 -18 1 -31 1 -15 -6 -25 -22 -31 -15 -7 -17 -10
-7 -10 9 -1 21 5 26 12 15 19 22 56 12 63 -5 3 -9 2 -10 -3z"/>
<path d="M3241 2544 c0 -11 3 -14 6 -6 3 7 2 16 -1 19 -3 4 -6 -2 -5 -13z"/>
<path d="M2820 2530 c0 -7 -17 -29 -37 -48 -21 -20 -32 -32 -25 -28 7 4 20 2
30 -6 15 -12 16 -11 3 5 -7 9 -9 17 -4 17 12 0 47 60 39 67 -3 4 -6 0 -6 -7z"/>
<path d="M2923 2523 c-7 -17 37 -63 60 -63 7 0 -3 10 -20 21 -34 22 -42 44
-20 52 9 4 9 6 -1 6 -7 1 -15 -6 -19 -16z"/>
<path d="M3097 2521 c-4 -17 -3 -21 5 -13 5 5 8 16 6 23 -3 8 -7 3 -11 -10z"/>
<path d="M2673 2495 c0 -22 2 -30 4 -17 2 12 2 30 0 40 -3 9 -5 -1 -4 -23z"/>
<path d="M2980 2510 c8 -5 20 -10 25 -10 6 0 3 5 -5 10 -8 5 -19 10 -25 10 -5
0 -3 -5 5 -10z"/>
<path d="M3226 2503 c-6 -14 -5 -15 5 -6 7 7 10 15 7 18 -3 3 -9 -2 -12 -12z"/>
<path d="M2369 2478 c8 -11 25 -17 45 -17 l31 2 -30 4 c-16 3 -37 10 -45 16
-13 10 -13 10 -1 -5z"/>
<path d="M3053 2478 c-13 -6 -23 -15 -23 -19 0 -4 14 -1 30 7 29 15 39 25 23
23 -5 0 -18 -5 -30 -11z"/>
<path d="M3179 2433 l-24 -28 28 24 c25 23 32 31 24 31 -2 0 -14 -12 -28 -27z"/>
<path d="M2820 2405 c13 -14 26 -25 28 -25 3 0 -5 11 -18 25 -13 14 -26 25
-28 25 -3 0 5 -11 18 -25z"/>
<path d="M3126 2395 c-11 -8 -15 -15 -9 -15 6 0 16 7 23 15 16 19 11 19 -14 0z"/>
<path d="M2968 2333 c6 -2 18 -2 25 0 6 3 1 5 -13 5 -14 0 -19 -2 -12 -5z"/>
<path d="M2801 2189 c-90 -33 -171 -61 -180 -62 -9 -2 -25 -8 -36 -13 -11 -6
-159 -60 -328 -120 -170 -60 -305 -110 -300 -111 4 -2 147 47 316 107 170 61
310 110 313 110 2 0 4 -47 4 -104 l0 -104 -37 -13 c-69 -22 -129 -57 -161 -94
l-32 -36 0 -164 0 -165 -57 0 c-96 -1 -183 -57 -199 -128 -12 -55 -12 -55 -56
-20 -334 266 -594 468 -601 465 -4 -1 -84 -99 -177 -217 -163 -206 -170 -217
-170 -260 1 -43 3 -47 57 -87 62 -47 57 -50 -48 -28 -40 9 -73 14 -74 13 -6
-8 -26 -131 -22 -134 3 -3 10 25 17 60 11 60 14 65 34 61 51 -12 566 -117 611
-125 40 -7 346 -68 475 -95 17 -4 20 -3 10 4 -8 4 -33 12 -55 15 -22 4 -67 13
-100 21 -33 7 -111 24 -172 36 -62 12 -113 26 -113 32 0 12 223 296 233 297 4
0 36 -23 71 -50 41 -32 66 -60 71 -78 10 -43 52 -100 87 -119 l33 -18 -65 -5
c-55 -4 -65 -8 -65 -23 0 -18 15 -19 303 -17 281 1 327 -3 292 -25 -5 -3 -10
-26 -10 -50 0 -53 26 -76 110 -97 51 -12 55 -15 58 -44 3 -31 3 -31 -55 -36
-32 -3 -75 -13 -96 -21 -34 -15 -37 -19 -37 -56 l0 -41 -286 0 -285 0 3 -22 3
-23 315 -5 c208 -3 324 -9 341 -17 29 -13 186 -6 205 8 7 6 15 -5 23 -32 7
-22 18 -42 26 -45 7 -3 80 14 162 38 l148 43 332 5 332 5 57 41 c34 23 66 56
77 78 41 79 31 188 -23 250 -16 18 -26 37 -22 41 4 5 2 5 -5 1 -6 -3 -27 3
-45 14 l-33 20 -5 222 -6 223 -2 -224 -2 -223 -22 6 c-13 3 -60 6 -105 6 -56
0 -82 4 -80 11 1 6 -4 13 -11 15 -7 1 -8 0 -2 -3 35 -17 -28 -23 -243 -23
l-241 0 -42 41 c-23 22 -58 46 -79 53 -35 12 -40 19 -58 77 -23 79 -41 99 -82
99 -41 0 -47 -8 -76 -97 -18 -55 -29 -73 -42 -73 -24 0 -55 -17 -95 -51 l-33
-29 -227 0 c-210 0 -266 5 -316 26 -15 5 -17 4 -11 -6 5 -9 4 -11 -4 -6 -6 4
-9 11 -6 16 3 4 -2 14 -11 21 -27 22 -44 66 -44 113 0 39 6 52 36 86 22 24 51
44 74 50 25 7 293 9 774 8 668 -3 736 -2 736 13 0 23 -154 29 -817 29 l-563 0
0 153 c0 133 2 156 20 184 19 32 83 71 162 99 l38 13 0 -49 c0 -38 4 -50 15
-50 11 0 15 13 15 54 l0 54 63 11 c202 38 464 32 644 -15 75 -19 171 -64 206
-97 l27 -26 0 -161 c0 -209 18 -216 22 -8 l3 153 204 69 c201 69 204 70 170
82 -19 6 -243 86 -499 177 -256 91 -472 168 -480 171 -8 2 -89 -22 -179 -55z
m169 -98 l0 -148 -92 -7 c-94 -7 -208 -22 -241 -32 -16 -5 -17 3 -15 103 l3
108 170 62 c94 34 171 62 173 62 1 1 2 -66 2 -148z m-1290 -539 l220 -174 -38
-46 c-21 -26 -82 -102 -136 -170 -72 -91 -102 -122 -114 -118 -21 7 -251 56
-261 56 -5 0 -41 25 -82 55 -41 30 -83 55 -94 55 -11 0 -30 3 -43 6 -20 6 -23
12 -20 50 3 40 19 64 168 254 91 115 168 208 172 207 5 -1 107 -80 228 -175z
m2060 -149 c0 -7 -299 -7 -655 0 -77 1 39 4 258 5 218 1 397 -1 397 -5z m-701
-186 c-24 -23 -24 -38 1 -44 28 -7 25 -20 -10 -38 -26 -13 -35 -14 -57 -3 -31
15 -42 38 -19 38 20 0 20 19 1 47 -14 20 -13 23 17 46 l31 25 27 -26 c27 -26
27 -27 9 -45z m956 -198 c156 -80 157 -297 2 -374 l-51 -25 -297 0 -296 0 10
39 c20 73 -32 111 -150 111 l-53 0 0 33 c0 33 2 34 57 47 61 13 113 54 113 87
0 10 -11 40 -25 66 l-24 48 332 -3 333 -3 49 -26z m-932 -3 c69 23 71 23 69
-21 -1 -11 3 -49 9 -84 12 -75 7 -81 -84 -104 -50 -13 -65 -13 -120 0 -93 21
-98 28 -87 99 6 32 10 76 10 96 l0 37 68 -23 67 -23 68 23z m-223 -41 c0 -35
-5 -40 -34 -29 -20 8 -20 23 1 46 24 27 33 22 33 -17z m342 18 c22 -20 23 -39
2 -47 -29 -11 -34 -6 -34 29 0 39 5 42 32 18z"/>
<path d="M1598 1473 c7 -3 16 -2 19 1 4 3 -2 6 -13 5 -11 0 -14 -3 -6 -6z"/>
<path d="M1625 1460 c-13 -6 -15 -9 -5 -9 8 0 22 4 30 9 18 12 2 12 -25 0z"/>
<path d="M4455 2068 c-9 -24 -19 -47 -21 -53 -3 -6 14 -10 40 -10 l44 0 -20
50 c-11 28 -21 51 -23 53 -1 2 -10 -16 -20 -40z"/>
<path d="M4365 1305 c0 -280 1 -397 2 -258 2 138 2 368 0 510 -1 142 -2 29 -2
-252z"/>
<path d="M4428 1278 l2 -528 45 0 45 0 0 528 0 527 -48 0 -47 0 3 -527z"/>
<path d="M4388 1793 c7 -3 16 -2 19 1 4 3 -2 6 -13 5 -11 0 -14 -3 -6 -6z"/>
<path d="M4548 1793 c7 -3 16 -2 19 1 4 3 -2 6 -13 5 -11 0 -14 -3 -6 -6z"/>
<path d="M2559 1763 c-13 -16 -12 -17 4 -4 9 7 17 15 17 17 0 8 -8 3 -21 -13z"/>
<path d="M4070 1765 c0 -2 -9 -27 -20 -55 -24 -61 -17 -67 10 -8 l19 42 10
-27 c14 -37 15 -35 -11 -40 -14 -3 -10 -4 10 -4 17 1 32 2 32 3 0 7 -42 94
-45 94 -3 0 -5 -2 -5 -5z"/>
<path d="M2565 1679 c-4 -6 -5 -12 -2 -15 2 -3 7 2 10 11 7 17 1 20 -8 4z"/>
<path d="M2546 1635 c-9 -26 -7 -32 5 -12 6 10 9 21 6 23 -2 3 -7 -2 -11 -11z"/>
<path d="M2588 1573 c12 -2 32 -2 45 0 12 2 2 4 -23 4 -25 0 -35 -2 -22 -4z"/>
<path d="M4085 1460 l-30 -8 33 -1 c17 0 32 4 32 9 0 6 -1 9 -2 9 -2 -1 -16
-5 -33 -9z"/>
<path d="M4584 1090 c0 -190 2 -267 3 -172 2 94 2 250 0 345 -1 94 -3 17 -3
-173z"/>
<path d="M5306 1374 c-8 -20 9 -34 42 -34 13 0 22 -6 22 -15 0 -9 6 -12 16 -8
14 5 16 2 10 -20 -3 -15 -2 -27 3 -27 4 0 11 19 15 42 8 51 -5 67 -61 75 -32
4 -41 2 -47 -13z"/>
<path d="M5370 1169 c-19 -11 -28 -19 -19 -19 9 0 27 9 40 20 29 23 25 23 -21
-1z"/>
<path d="M5588 1133 c7 -3 16 -2 19 1 4 3 -2 6 -13 5 -11 0 -14 -3 -6 -6z"/>
<path d="M4194 945 c0 -82 2 -115 3 -72 2 43 2 110 0 150 -1 40 -3 5 -3 -78z"/>
<path d="M5365 993 l-20 -98 -86 -3 -87 -3 24 83 c13 45 24 89 23 97 0 9 -12
-27 -27 -79 l-27 -95 -50 -5 c-45 -4 -50 -8 -51 -30 -1 -22 0 -22 3 -2 4 22 6
22 176 23 95 1 160 4 145 6 -33 5 -33 3 -12 104 9 43 14 84 12 90 -2 6 -12
-34 -23 -88z"/>
<path d="M5502 1030 c0 -14 2 -19 5 -12 2 6 2 18 0 25 -3 6 -5 1 -5 -13z"/>
<path d="M4660 1022 c0 -4 20 -57 44 -117 l44 -110 156 -3 c95 -1 156 1 156 7
0 5 -12 11 -27 13 -24 3 -31 14 -69 108 l-42 105 -131 3 c-72 1 -131 -1 -131
-6z m165 -105 c0 -26 -20 -25 -23 2 -3 16 1 22 10 19 7 -3 13 -12 13 -21z"/>
<path d="M1002 990 c0 -14 2 -19 5 -12 2 6 2 18 0 25 -3 6 -5 1 -5 -13z"/>
<path d="M992 940 c0 -14 2 -19 5 -12 2 6 2 18 0 25 -3 6 -5 1 -5 -13z"/>
<path d="M1601 934 c0 -11 3 -14 6 -6 3 7 2 16 -1 19 -3 4 -6 -2 -5 -13z"/>
<path d="M5136 942 c-3 -6 -1 -14 5 -17 14 -9 20 -2 10 14 -6 8 -11 9 -15 3z"/>
<path d="M5491 914 c0 -11 3 -14 6 -6 3 7 2 16 -1 19 -3 4 -6 -2 -5 -13z"/>
<path d="M1646 898 c-3 -13 -5 -32 -5 -43 1 -11 5 -2 10 19 10 42 6 62 -5 24z"/>
<path d="M982 890 c0 -14 2 -19 5 -12 2 6 2 18 0 25 -3 6 -5 1 -5 -13z"/>
<path d="M1592 890 c0 -14 2 -19 5 -12 2 6 2 18 0 25 -3 6 -5 1 -5 -13z"/>
<path d="M972 840 c0 -14 2 -19 5 -12 2 6 2 18 0 25 -3 6 -5 1 -5 -13z"/>
<path d="M1581 844 c0 -11 3 -14 6 -6 3 7 2 16 -1 19 -3 4 -6 -2 -5 -13z"/>
<path d="M1632 810 c0 -14 2 -19 5 -12 2 6 2 18 0 25 -3 6 -5 1 -5 -13z"/>
<path d="M962 790 c0 -14 2 -19 5 -12 2 6 2 18 0 25 -3 6 -5 1 -5 -13z"/>
<path d="M1571 783 c-1 -31 1 -33 32 -32 29 2 29 2 5 6 -20 3 -28 11 -31 31
-4 24 -4 24 -6 -5z"/>
<path d="M5439 763 l-24 -28 28 24 c15 14 27 26 27 28 0 8 -8 1 -31 -24z"/>
<path d="M945 720 c-4 -23 -5 -43 -2 -46 2 -3 7 14 11 37 4 23 5 44 2 46 -2 2
-7 -14 -11 -37z"/>
<path d="M4538 753 c6 -2 18 -2 25 0 6 3 1 5 -13 5 -14 0 -19 -2 -12 -5z"/>
<path d="M5368 723 c7 -3 16 -2 19 1 4 3 -2 6 -13 5 -11 0 -14 -3 -6 -6z"/>
<path d="M4328 683 c7 -3 16 -2 19 1 4 3 -2 6 -13 5 -11 0 -14 -3 -6 -6z"/>
<path d="M926 624 c-4 -20 -5 -38 -3 -40 3 -3 8 11 11 32 4 20 5 38 3 40 -3 3
-8 -11 -11 -32z"/>
<path d="M4878 595 c2 -19 6 -35 8 -35 2 0 4 16 4 35 0 19 -4 35 -8 35 -4 0
-6 -16 -4 -35z"/>
<path d="M953 563 c9 -2 25 -2 35 0 9 3 1 5 -18 5 -19 0 -27 -2 -17 -5z"/>
<path d="M3920 561 c0 -7 26 -11 66 -11 36 0 63 4 60 8 -8 13 -126 15 -126 3z"/>
<path d="M4116 562 c-2 -4 4 -9 15 -9 10 -1 19 2 19 8 0 11 -27 12 -34 1z"/>
<path d="M4303 563 c9 -2 23 -2 30 0 6 3 -1 5 -18 5 -16 0 -22 -2 -12 -5z"/>
<path d="M1728 553 c12 -2 32 -2 45 0 12 2 2 4 -23 4 -25 0 -35 -2 -22 -4z"/>
<path d="M1808 553 c7 -3 16 -2 19 1 4 3 -2 6 -13 5 -11 0 -14 -3 -6 -6z"/>
<path d="M5495 325 c10 -113 22 -205 25 -205 3 0 0 71 -7 157 -6 87 -12 179
-12 206 -1 30 -5 47 -13 47 -10 0 -9 -45 7 -205z"/>
<path d="M5116 503 c-2 -10 -7 -83 -11 -163 -4 -80 -10 -162 -15 -183 -6 -29
-5 -37 7 -37 8 0 12 4 9 9 -4 5 3 94 14 198 11 103 20 189 20 191 0 11 -20 -2
-24 -15z"/>
<path d="M1163 493 c26 -2 68 -2 95 0 26 2 4 3 -48 3 -52 0 -74 -1 -47 -3z"/>
<path d="M1733 493 c9 -2 23 -2 30 0 6 3 -1 5 -18 5 -16 0 -22 -2 -12 -5z"/>
<path d="M4043 493 c37 -2 96 -2 130 0 34 2 4 3 -68 3 -71 0 -99 -1 -62 -3z"/>
<path d="M4623 493 c15 -2 37 -2 50 0 12 2 0 4 -28 4 -27 0 -38 -2 -22 -4z"/>
<path d="M2741 445 c1 -19 18 -51 18 -35 0 8 -4 22 -9 30 -5 8 -9 11 -9 5z"/>
<path d="M1168 433 c28 -2 76 -2 105 0 28 2 5 3 -53 3 -58 0 -81 -1 -52 -3z"/>
<path d="M1718 433 c7 -3 16 -2 19 1 4 3 -2 6 -13 5 -11 0 -14 -3 -6 -6z"/>
<path d="M4023 433 c32 -2 81 -2 110 0 29 2 3 3 -58 3 -60 0 -84 -1 -52 -3z"/>
<path d="M4328 433 c7 -3 16 -2 19 1 4 3 -2 6 -13 5 -11 0 -14 -3 -6 -6z"/>
<path d="M4628 433 c18 -2 45 -2 60 0 15 2 0 4 -33 4 -33 0 -45 -2 -27 -4z"/>
<path d="M2616 407 c3 -10 9 -15 12 -12 3 3 0 11 -7 18 -10 9 -11 8 -5 -6z"/>
<path d="M2761 374 c0 -11 3 -14 6 -6 3 7 2 16 -1 19 -3 4 -6 -2 -5 -13z"/>
<path d="M1178 373 c28 -2 76 -2 105 0 28 2 5 3 -53 3 -58 0 -81 -1 -52 -3z"/>
<path d="M4053 373 c37 -2 96 -2 130 0 34 2 4 3 -68 3 -71 0 -99 -1 -62 -3z"/>
<path d="M4648 373 c12 -2 30 -2 40 0 9 3 -1 5 -23 4 -22 0 -30 -2 -17 -4z"/>
<path d="M2641 353 c0 -4 4 -17 9 -28 8 -19 9 -19 9 2 1 12 -3 25 -9 28 -5 3
-10 3 -9 -2z"/>
<path d="M2773 305 c0 -22 2 -30 4 -17 2 12 2 30 0 40 -3 9 -5 -1 -4 -23z"/>
<path d="M4872 280 c0 -19 2 -27 5 -17 2 9 2 25 0 35 -3 9 -5 1 -5 -18z"/>
<path d="M2661 284 c0 -11 3 -14 6 -6 3 7 2 16 -1 19 -3 4 -6 -2 -5 -13z"/>
<path d="M2672 240 c0 -14 2 -19 5 -12 2 6 2 18 0 25 -3 6 -5 1 -5 -13z"/>
<path d="M2696 243 c-6 -14 -5 -15 5 -6 7 7 10 15 7 18 -3 3 -9 -2 -12 -12z"/>
<path d="M2749 245 c25 -48 31 -51 30 -15 -1 19 -3 27 -6 17 -5 -18 -5 -18
-19 0 -14 17 -15 17 -5 -2z"/>
<path d="M4318 243 c6 -2 18 -2 25 0 6 3 1 5 -13 5 -14 0 -19 -2 -12 -5z"/>
<path d="M4838 223 c7 -3 16 -2 19 1 4 3 -2 6 -13 5 -11 0 -14 -3 -6 -6z"/>
<path d="M4308 193 c6 -2 18 -2 25 0 6 3 1 5 -13 5 -14 0 -19 -2 -12 -5z"/>
<path d="M4726 193 c-11 -3 -38 -17 -60 -32 l-41 -26 -1910 -5 -1910 -5 2131
-3 2131 -2 -5 28 c-2 15 -8 32 -13 37 -11 15 -108 10 -148 -8 -32 -14 -36 -13
-50 4 -13 16 -21 18 -48 10 -20 -6 -35 -6 -38 0 -6 10 -8 10 -39 2z"/>
<path d="M1153 183 c32 -2 81 -2 110 0 29 2 3 3 -58 3 -60 0 -84 -1 -52 -3z"/>
<path d="M1788 183 c7 -3 16 -2 19 1 4 3 -2 6 -13 5 -11 0 -14 -3 -6 -6z"/>
<path d="M4063 183 c20 -2 54 -2 75 0 20 2 3 4 -38 4 -41 0 -58 -2 -37 -4z"/>
</g>
</svg>
