<?xml version="1.0" standalone="no"?>
<!DOCTYPE svg PUBLIC "-//W3C//DTD SVG 20010904//EN"
 "http://www.w3.org/TR/2001/REC-SVG-20010904/DTD/svg10.dtd">
<svg version="1.0" xmlns="http://www.w3.org/2000/svg"
 width="500.000000pt" height="500.000000pt" viewBox="0 0 500.000000 500.000000"
 preserveAspectRatio="xMidYMid meet">
<metadata>
Created by potrace 1.16, written by Peter Selinger 2001-2019
</metadata>
<g transform="translate(0.000000,500.000000) scale(0.100000,-0.100000)"
fill="#000000" stroke="none">
<path d="M4304 3850 c-36 -14 -64 -59 -64 -102 0 -58 42 -98 103 -98 106 0
145 128 58 187 -35 24 -62 28 -97 13z"/>
<path d="M2814 3686 c-30 -30 -34 -40 -34 -86 0 -46 4 -56 34 -86 l34 -34 121
0 c67 0 121 -3 121 -8 0 -4 -80 -87 -178 -185 l-179 -179 -245 156 c-221 141
-249 156 -289 156 -41 0 -66 -15 -384 -235 -187 -129 -350 -247 -362 -261 -17
-19 -23 -37 -23 -76 0 -44 4 -54 34 -84 29 -29 41 -34 82 -34 47 0 60 7 353
210 281 195 306 209 325 197 12 -8 125 -80 252 -160 216 -138 234 -147 279
-147 l49 0 231 230 c127 127 234 230 238 230 4 0 7 -54 7 -121 l0 -121 34 -34
c30 -30 40 -34 86 -34 46 0 56 4 86 34 l34 34 0 302 0 302 -34 34 -34 34 -302
0 -302 0 -34 -34z m633 -38 c23 -21 23 -22 23 -293 0 -260 -1 -273 -21 -299
-25 -32 -64 -34 -96 -4 -22 21 -23 27 -23 175 0 84 -2 153 -4 153 -2 0 -12 3
-21 6 -12 5 -85 -62 -274 -250 -177 -176 -264 -256 -279 -256 -12 0 -138 74
-281 165 -142 91 -263 165 -268 165 -6 0 -145 -93 -309 -207 -164 -113 -311
-211 -326 -217 -23 -8 -32 -7 -55 10 -37 28 -42 72 -11 101 54 49 679 473 698
473 12 0 134 -72 272 -160 138 -88 258 -160 267 -160 15 0 451 428 451 442 0
35 -11 38 -163 38 -141 0 -152 1 -174 22 -29 27 -29 65 -1 95 21 23 22 23 297
23 268 0 275 -1 298 -22z"/>
<path d="M604 3600 c-36 -14 -64 -59 -64 -102 0 -58 42 -98 103 -98 106 0 145
128 58 187 -35 24 -62 28 -97 13z"/>
<path d="M1430 2521 c-20 -11 -44 -36 -58 -62 l-23 -43 3 -507 c3 -495 4 -508
24 -535 11 -15 33 -37 48 -48 27 -21 33 -21 1076 -21 1043 0 1049 0 1076 21
15 11 37 33 48 48 20 27 21 40 24 535 l3 507 -23 43 c-47 87 44 81 -1128 81
-989 0 -1037 -1 -1070 -19z m2121 -70 l24 -19 3 -502 3 -501 -30 -29 -29 -30
-1022 0 -1022 0 -29 30 -30 29 3 501 3 502 24 19 c23 18 54 19 1051 19 997 0
1028 -1 1051 -19z"/>
<path d="M1706 2378 c-2 -7 -7 -31 -10 -53 -10 -71 -64 -123 -136 -129 -25 -2
-48 -4 -53 -5 -4 -1 -6 -124 -5 -273 l3 -273 52 -5 c85 -9 143 -70 143 -151 0
-24 5 -39 16 -43 9 -3 84 -6 169 -6 123 0 155 3 165 15 10 12 10 18 0 30 -10
12 -41 15 -156 15 -138 0 -144 1 -144 20 0 62 -74 145 -147 166 l-53 15 0 220
c0 204 1 219 18 219 10 0 41 11 69 25 57 29 101 83 110 138 5 35 7 36 52 39
38 3 46 6 46 23 0 18 -8 20 -68 23 -48 2 -68 -1 -71 -10z"/>
<path d="M2227 2376 c-13 -33 14 -36 339 -36 269 0 324 2 334 15 6 8 9 19 5
25 -4 6 -119 10 -340 10 -273 0 -334 -2 -338 -14z"/>
<path d="M3034 2375 c-12 -29 7 -35 112 -35 100 0 104 -1 104 -22 0 -12 10
-42 21 -66 24 -49 89 -97 146 -108 l33 -6 0 -218 0 -219 -53 -15 c-73 -21
-147 -104 -147 -166 0 -20 -2 -20 -534 -20 -462 0 -535 -2 -546 -15 -10 -12
-10 -18 0 -30 11 -13 85 -15 555 -15 299 0 550 3 559 6 11 4 16 19 16 43 0 81
58 142 143 151 l52 5 3 264 c1 173 -1 268 -8 275 -6 6 -29 12 -53 13 -73 5
-127 61 -135 142 l-5 51 -129 0 c-103 0 -130 -3 -134 -15z"/>
<path d="M2421 2214 c-53 -22 -26 -35 39 -18 121 32 262 -34 322 -151 29 -56
35 -149 13 -219 -10 -31 -15 -60 -11 -63 10 -11 24 14 42 76 57 192 -97 392
-301 391 -39 -1 -85 -7 -104 -16z"/>
<path d="M2270 2099 c-115 -159 -53 -383 129 -467 98 -45 259 -25 317 39 21
23 10 39 -14 21 -144 -105 -343 -64 -427 89 -27 48 -30 63 -30 139 0 86 10
117 61 187 10 13 11 23 5 27 -6 4 -24 -12 -41 -35z"/>
<path d="M1878 2063 c-33 -21 -68 -82 -68 -118 0 -89 90 -157 177 -133 69 19
116 96 98 165 -3 15 -23 44 -44 65 -34 34 -44 38 -87 38 -28 0 -61 -8 -76 -17z
m130 -26 c69 -33 68 -145 0 -187 -43 -26 -77 -25 -119 3 -59 39 -65 124 -13
172 38 35 78 39 132 12z"/>
<path d="M3028 2063 c-33 -21 -68 -82 -68 -118 0 -89 90 -157 177 -133 69 19
116 96 98 165 -3 15 -23 44 -44 65 -34 34 -44 38 -87 38 -28 0 -61 -8 -76 -17z
m130 -26 c69 -33 68 -145 0 -187 -43 -26 -77 -25 -119 3 -59 39 -65 124 -13
172 38 35 78 39 132 12z"/>
<path d="M1204 700 c-36 -14 -64 -59 -64 -102 0 -58 42 -98 103 -98 106 0 145
128 58 187 -35 24 -62 28 -97 13z"/>
</g>
</svg>
