<?xml version="1.0" standalone="no"?>
<!DOCTYPE svg PUBLIC "-//W3C//DTD SVG 20010904//EN"
 "http://www.w3.org/TR/2001/REC-SVG-20010904/DTD/svg10.dtd">
<svg version="1.0" xmlns="http://www.w3.org/2000/svg"
 width="60.000000pt" height="60.000000pt" viewBox="0 0 60.000000 60.000000"
 preserveAspectRatio="xMidYMid meet">
<metadata>
Created by potrace 1.16, written by Peter Selinger 2001-2019
</metadata>
<g transform="translate(0.000000,60.000000) scale(0.100000,-0.100000)"
fill="#000000" stroke="none">
<path d="M263 420 c-40 -24 -53 -48 -53 -100 0 -34 6 -48 34 -76 28 -28 42
-34 75 -34 123 0 165 152 61 214 -37 21 -78 20 -117 -4z m115 -6 c25 -17 29
-34 7 -34 -8 0 -15 -6 -15 -13 0 -16 -27 -41 -52 -50 -10 -4 -26 4 -43 20 -19
20 -29 23 -37 15 -8 -8 -8 -15 0 -24 6 -7 12 -29 15 -48 4 -33 4 -33 5 8 2 39
4 42 21 32 11 -5 23 -19 26 -31 5 -16 10 -18 21 -8 8 6 14 17 14 23 0 13 57
76 69 76 22 0 28 -65 9 -105 -15 -33 -28 -32 -29 3 -1 20 -3 17 -8 -13 -6 -40
-6 -40 -54 -43 -41 -3 -51 1 -77 26 -48 49 -37 136 22 169 32 17 79 16 106 -3z"/>
</g>
</svg>
