<?xml version="1.0" standalone="no"?>
<!DOCTYPE svg PUBLIC "-//W3C//DTD SVG 20010904//EN"
 "http://www.w3.org/TR/2001/REC-SVG-20010904/DTD/svg10.dtd">
<svg version="1.0" xmlns="http://www.w3.org/2000/svg"
 width="60.000000pt" height="60.000000pt" viewBox="0 0 60.000000 60.000000"
 preserveAspectRatio="xMidYMid meet">

<g transform="translate(0.000000,60.000000) scale(0.100000,-0.100000)"
fill="#000000" stroke="none">
<path d="M227 449 c22 -38 53 -66 35 -32 -7 12 -17 25 -22 28 -20 13 -9 24 28
28 33 3 32 4 -11 5 l-48 2 18 -31z"/>
<path d="M338 464 c-51 -27 -64 -93 -27 -135 l21 -24 -16 25 c-20 30 -20 79
-1 103 7 11 31 25 52 32 21 8 29 14 18 14 -11 0 -32 -6 -47 -15z"/>
<path d="M120 425 c0 -49 8 -55 34 -26 17 19 17 21 -1 45 -26 36 -33 32 -33
-19z m36 -14 c-13 -20 -26 -11 -26 16 0 25 1 26 16 11 9 -9 13 -21 10 -27z"/>
<path d="M441 441 c16 -16 29 -40 29 -53 0 -39 -86 -156 -96 -130 -3 6 -10 12
-16 12 -6 0 -3 -9 7 -19 17 -20 17 -20 40 7 44 53 75 105 75 128 0 22 -44 84
-60 84 -5 0 5 -13 21 -29z"/>
<path d="M336 418 c-22 -30 -20 -54 5 -79 27 -27 66 -21 92 12 16 23 17 30 7
50 -17 31 -29 39 -62 39 -17 0 -33 -9 -42 -22z m90 -13 c15 -23 15 -27 0 -50
-27 -40 -96 -25 -96 21 0 55 66 75 96 29z"/>
<path d="M370 385 c0 -23 2 -25 21 -15 23 13 21 33 -4 38 -12 3 -17 -4 -17
-23z m30 5 c0 -5 -4 -10 -10 -10 -5 0 -10 5 -10 10 0 6 5 10 10 10 6 0 10 -4
10 -10z"/>
<path d="M147 362 c-25 -26 -27 -34 -27 -122 l0 -95 72 72 71 71 -34 48 c-19
26 -39 49 -45 51 -5 2 -22 -9 -37 -25z m73 -28 l33 -46 -62 -61 c-54 -55 -61
-59 -61 -38 0 14 10 36 22 50 13 14 16 20 8 14 -24 -22 -30 -15 -30 34 0 34 6
53 22 70 12 13 24 23 28 23 4 0 21 -21 40 -46z"/>
<path d="M430 245 l-34 -35 30 -42 c16 -23 34 -42 39 -42 6 -1 11 33 13 77 2
42 -1 77 -6 77 -4 0 -23 -16 -42 -35z m40 -50 c0 -36 -2 -65 -5 -65 -3 0 -17
18 -31 40 l-27 41 23 24 c13 14 27 25 32 25 4 0 8 -29 8 -65z"/>
<path d="M227 192 c-31 -32 -57 -61 -57 -65 0 -4 45 -7 101 -7 83 0 100 3 96
14 -5 13 -77 116 -81 116 -1 0 -27 -26 -59 -58z m96 -6 c15 -24 27 -46 27 -50
0 -3 -36 -6 -80 -6 -44 0 -80 3 -80 7 0 11 83 93 95 93 5 0 22 -20 38 -44z"/>
</g>
</svg>
