<?xml version="1.0" standalone="no"?>
<!DOCTYPE svg PUBLIC "-//W3C//DTD SVG 20010904//EN"
 "http://www.w3.org/TR/2001/REC-SVG-20010904/DTD/svg10.dtd">
<svg version="1.0" xmlns="http://www.w3.org/2000/svg"
 width="60.000000pt" height="60.000000pt" viewBox="0 0 60.000000 60.000000"
 preserveAspectRatio="xMidYMid meet">

<g transform="translate(0.000000,60.000000) scale(0.100000,-0.100000)"
fill="#000000" stroke="none">
<path d="M177 473 c-4 -3 -7 -29 -7 -56 0 -41 -4 -53 -25 -69 -23 -18 -25 -25
-25 -113 0 -83 2 -96 19 -105 28 -15 314 -13 329 2 8 8 12 46 12 103 0 89 -1
92 -30 118 l-30 27 0 -47 c-1 -39 -6 -54 -30 -81 -26 -28 -32 -31 -50 -20 -11
7 -18 19 -15 27 3 7 0 20 -6 28 -7 7 -10 15 -8 16 2 1 26 13 53 25 44 21 47
24 33 40 -8 9 -17 26 -19 37 -2 11 -12 21 -23 23 -11 2 -28 11 -38 20 -20 18
-18 21 -46 -48 -13 -30 -32 -64 -42 -76 -23 -25 -23 -28 -3 -49 9 -9 24 -13
35 -10 35 11 42 -7 10 -26 l-31 -19 -30 33 c-28 30 -29 36 -30 124 l0 92 43 4
42 4 -41 1 c-22 1 -44 -1 -47 -5z m212 -122 c-14 -4 -89 69 -89 88 0 9 21 -5
50 -34 28 -28 46 -51 39 -54z m-54 29 l39 -40 -39 -16 c-36 -15 -39 -14 -57 3
-17 18 -18 22 -3 56 8 20 17 37 18 37 2 0 20 -18 42 -40z m35 30 c0 -5 -2 -10
-4 -10 -3 0 -8 5 -11 10 -3 6 -1 10 4 10 6 0 11 -4 11 -10z m-200 -87 c0 -25
-1 -26 -16 -11 -9 9 -13 21 -10 27 13 20 26 11 26 -16z m286 16 c3 -6 -1 -18
-10 -27 -15 -15 -16 -14 -16 11 0 27 13 36 26 16z m-140 -77 c-4 -4 -14 2 -22
12 -11 16 -16 17 -29 6 -13 -11 -19 -11 -32 3 -15 15 -15 18 2 37 l19 21 34
-36 c19 -20 32 -39 28 -43z m-128 -2 l43 -48 -38 -36 c-57 -53 -63 -49 -63 49
0 47 3 85 8 84 4 -1 26 -23 50 -49z m282 -35 c0 -98 -6 -102 -63 -49 l-38 36
43 48 c24 26 46 48 51 49 4 1 7 -37 7 -84z m-96 -31 c31 -26 56 -50 56 -55 0
-5 -59 -9 -131 -9 -100 0 -130 3 -127 13 3 6 20 15 39 18 23 4 27 7 11 8 -22
1 -20 4 18 36 23 19 50 35 60 35 10 0 43 -21 74 -46z"/>
<path d="M404 458 l-19 -23 23 19 c21 18 27 26 19 26 -2 0 -12 -10 -23 -22z"/>
<path d="M208 433 c6 -2 18 -2 25 0 6 3 1 5 -13 5 -14 0 -19 -2 -12 -5z"/>
<path d="M208 393 c6 -2 18 -2 25 0 6 3 1 5 -13 5 -14 0 -19 -2 -12 -5z"/>
</g>
</svg>
